<?xml version="1.0" encoding="iso-8859-1"?>
<!-- Generator: Adobe Illustrator 19.0.0, SVG Export Plug-In . SVG Version: 6.00 Build 0)  -->
<svg version="1.1" id="Layer_1" xmlns="http://www.w3.org/2000/svg" xmlns:xlink="http://www.w3.org/1999/xlink" x="0px" y="0px"
	 viewBox="0 0 512.001 512.001" style="enable-background:new 0 0 512.001 512.001;" xml:space="preserve">
<g>
	<g>
		<path d="M256.001,76.255c-99.112,0-179.745,80.633-179.745,179.745s80.633,179.745,179.745,179.745S435.745,355.111,435.745,256
			S355.113,76.255,256.001,76.255z M418.619,239.993c-0.176,4.35-3.76,7.837-8.153,7.837h-37.36v-19.064
			c0-4.512-3.657-8.17-8.17-8.17H264.171v-16.34h24.511c4.513,0,8.17-3.658,8.17-8.17c0-4.506,3.665-8.17,8.17-8.17h10.894
			c4.513,0,8.17-3.658,8.17-8.17v-29.957h55.986C401.311,174.562,415.274,205.742,418.619,239.993z M256.001,92.596
			c7.635,0,15.146,0.539,22.506,1.558c-3.758,8.781-12.42,14.783-22.506,14.783c-10.085,0-18.747-6.002-22.506-14.784
			C240.854,93.135,248.365,92.596,256.001,92.596z M149.788,131.929v88.666H96.471C104.26,185.475,123.379,154.57,149.788,131.929z
			 M94.933,283.558c2.4-1.961,5.391-3.047,8.558-3.047h57.191v24.511c0,10.045-5.602,25.659-11.985,33.414l-18.191,22.094
			C112.443,338.881,99.87,312.506,94.933,283.558z M256.001,419.404c-7.635,0-15.146-0.538-22.506-1.557
			c3.759-8.781,12.421-14.784,22.506-14.784s18.748,6.002,22.506,14.784C271.147,418.866,263.636,419.404,256.001,419.404z
			 M294.805,414.736c-5.375-16.462-20.734-28.013-38.804-28.013c-18.069,0-33.428,11.551-38.804,28.013
			c-28.94-7.075-54.878-21.877-75.5-42.09l19.616-23.825c8.81-10.701,15.711-29.94,15.711-43.8V272.34c0-4.512-3.657-8.17-8.17-8.17
			H103.49c-3.68,0-7.246,0.67-10.572,1.924c-0.205-3.34-0.321-6.703-0.321-10.094c0-6.449,0.388-12.808,1.118-19.064h56.074v2.723
			c0,4.512,3.657,8.17,8.17,8.17s8.17-3.658,8.17-8.17V119.602c15.406-10.184,32.627-17.83,51.068-22.338
			c5.377,16.464,20.736,28.013,38.804,28.013c18.07,0,33.429-11.55,38.804-28.013c26.042,6.367,49.654,18.99,69.151,36.183h-64.38
			c-4.513,0-8.17,3.658-8.17,8.17c0,4.512,3.657,8.17,8.17,8.17h8.17v21.787h-2.723c-10.652,0-19.738,6.83-23.111,16.34h-25.91
			c-4.513,0-8.17,3.658-8.17,8.17v24.511h-13.617c-4.513,0-8.17,3.658-8.17,8.17c0,4.512,3.657,8.17,8.17,8.17h89.872v16.34h-78.979
			c-16.518,0-29.957,13.438-29.957,29.957c0,16.519,13.439,29.957,29.957,29.957h2.723v29.957c0,16.519,13.439,29.957,29.957,29.957
			h38.128c4.513,0,8.17-3.658,8.17-8.17v-35.404c0-4.512-3.657-8.17-8.17-8.17c-4.513,0-8.17,3.658-8.17,8.17v27.234h-29.957
			c-7.509,0-13.617-6.108-13.617-13.617v-38.128c0-4.512-3.657-8.17-8.17-8.17h-10.894c-7.509,0-13.617-6.108-13.617-13.617
			s6.108-13.617,13.617-13.617h62.638v27.234c0,4.512,3.657,8.17,8.17,8.17c4.513,0,8.17-3.658,8.17-8.17v-27.234h8.17
			c4.513,0,8.17-3.658,8.17-8.17v-24.511h16.34v46.298c0,4.512,3.657,8.17,8.17,8.17s8.17-3.658,8.17-8.17V264.17h37.36
			c3.1,0,6.063-0.587,8.797-1.642C416.346,336.373,364.198,397.771,294.805,414.736z"/>
	</g>
</g>
<g>
	<g>
		<path d="M348.596,321.362c-4.513,0-8.17,3.658-8.17,8.17v10.894c0,4.512,3.657,8.17,8.17,8.17s8.17-3.658,8.17-8.17v-10.894
			C356.767,325.02,353.11,321.362,348.596,321.362z"/>
	</g>
</g>
<g>
	<g>
		<path d="M234.213,144.34c-4.513,0-8.17,3.658-8.17,8.17v10.894c0,4.512,3.658,8.17,8.17,8.17c4.513,0,8.17-3.658,8.17-8.17
			v-10.894C242.384,147.999,238.727,144.34,234.213,144.34z"/>
	</g>
</g>
<g>
	<g>
		<path d="M437.02,74.981C388.668,26.629,324.381,0,256.001,0C193.889,0,133.983,22.533,87.316,63.449
			c-3.392,2.974-3.732,8.136-0.757,11.529c2.976,3.392,8.136,3.732,11.53,0.757c43.685-38.301,99.765-59.394,157.912-59.394
			c132.149,0,239.66,107.51,239.66,239.66s-107.51,239.66-239.66,239.66c-45.563,0-89.893-12.846-128.198-37.146
			c-2.072-1.315-4.631-1.63-6.961-0.852l-99.753,33.251l33.251-99.752c0.777-2.33,0.464-4.886-0.852-6.96
			C29.186,345.894,16.341,301.563,16.341,256c0-58.145,21.093-114.226,59.394-157.913c2.974-3.393,2.635-8.555-0.757-11.53
			c-3.394-2.975-8.556-2.635-11.53,0.757C22.534,133.983,0.001,193.89,0.001,256c0,47.361,12.995,93.478,37.622,133.639
			L0.42,501.247c-0.978,2.936-0.215,6.172,1.974,8.361c1.558,1.558,3.646,2.393,5.779,2.393c0.864,0,1.736-0.137,2.583-0.419
			l111.608-37.202C162.523,499.005,208.641,512,256.001,512c68.38,0,132.667-26.628,181.019-74.981
			C485.372,388.667,512,324.38,512,256S485.372,123.333,437.02,74.981z"/>
	</g>
</g>
<g>
</g>
<g>
</g>
<g>
</g>
<g>
</g>
<g>
</g>
<g>
</g>
<g>
</g>
<g>
</g>
<g>
</g>
<g>
</g>
<g>
</g>
<g>
</g>
<g>
</g>
<g>
</g>
<g>
</g>
</svg>
