<?xml version="1.0" encoding="iso-8859-1"?>
<!-- Generator: Adobe Illustrator 19.0.0, SVG Export Plug-In . SVG Version: 6.00 Build 0)  -->
<svg version="1.1" id="Layer_1" xmlns="http://www.w3.org/2000/svg" xmlns:xlink="http://www.w3.org/1999/xlink" x="0px" y="0px"
	 viewBox="0 0 64 64" style="enable-background:new 0 0 64 64;" xml:space="preserve">
<g>
	<g>
		<path d="M63.707,25.293L58,19.586V5c0-0.553-0.447-1-1-1H32H7C6.447,4,6,4.447,6,5v14.586l-5.707,5.707C0.105,25.48,0,25.734,0,26
			v38h2V26.414l4-4V25c0,0.553,0.447,1,1,1h11.873c-0.444,1.724-2.013,3-3.873,3h-4c-0.553,0-1,0.447-1,1c0,3.309-2.691,6-6,6v2
			c0.691,0,1.36-0.095,2-0.26V49v4c0,0.553,0.447,1,1,1h7v10h2V54h32v10h2V54h7c0.553,0,1-0.447,1-1v-4V37.74
			c0.64,0.166,1.309,0.26,2,0.26v-2c-3.309,0-6-2.691-6-6c0-0.553-0.447-1-1-1h-4c-1.86,0-3.429-1.276-3.873-3H57
			c0.553,0,1-0.447,1-1v-2.586l4,4V64h2V26C64,25.734,63.894,25.48,63.707,25.293z M8,36.919c2.114-1.227,3.621-3.389,3.938-5.919
			H15c3.309,0,6-2.691,6-6c0-0.553-0.447-1-1-1H8v-2V6h23v42H8V36.919z M56,52H8v-2h24h24V52z M56,22v2H44c-0.553,0-1,0.447-1,1
			c0,3.309,2.691,6,6,6h3.062c0.317,2.53,1.824,4.692,3.938,5.919V48H33V6h23V22z"/>
	</g>
</g>
<g>
	<g>
		<path d="M21,8H11c-0.553,0-1,0.447-1,1v8c0,0.553,0.447,1,1,1h10c0.553,0,1-0.447,1-1V9C22,8.447,21.553,8,21,8z M20,16h-8v-6h8
			V16z"/>
	</g>
</g>
<g>
	<g>
		<path d="M46,36H36c-0.553,0-1,0.447-1,1v8c0,0.553,0.447,1,1,1h10c0.553,0,1-0.447,1-1v-8C47,36.447,46.553,36,46,36z M45,44h-8
			v-6h8V44z"/>
	</g>
</g>
<g>
	<g>
		<rect x="24" y="8" width="5" height="2"/>
	</g>
</g>
<g>
	<g>
		<rect x="24" y="12" width="5" height="2"/>
	</g>
</g>
<g>
	<g>
		<rect x="24" y="16" width="5" height="2"/>
	</g>
</g>
<g>
	<g>
		<rect x="35" y="16" width="5" height="2"/>
	</g>
</g>
<g>
	<g>
		<rect x="42" y="16" width="5" height="2"/>
	</g>
</g>
<g>
	<g>
		<rect x="49" y="16" width="5" height="2"/>
	</g>
</g>
<g>
	<g>
		<rect x="10" y="20" width="19" height="2"/>
	</g>
</g>
<g>
	<g>
		<rect x="35" y="20" width="19" height="2"/>
	</g>
</g>
<g>
	<g>
		<rect x="23" y="24" width="6" height="2"/>
	</g>
</g>
<g>
	<g>
		<rect x="22" y="28" width="7" height="2"/>
	</g>
</g>
<g>
	<g>
		<rect x="18" y="32" width="11" height="2"/>
	</g>
</g>
<g>
	<g>
		<rect x="35" y="24" width="6" height="2"/>
	</g>
</g>
<g>
	<g>
		<rect x="35" y="28" width="7" height="2"/>
	</g>
</g>
<g>
	<g>
		<rect x="35" y="32" width="11" height="2"/>
	</g>
</g>
<g>
	<g>
		<rect x="12" y="36" width="17" height="2"/>
	</g>
</g>
<g>
	<g>
		<rect x="10" y="40" width="19" height="2"/>
	</g>
</g>
<g>
	<g>
		<rect x="10" y="44" width="19" height="2"/>
	</g>
</g>
<g>
	<g>
		<rect x="49" y="36" width="4" height="2"/>
	</g>
</g>
<g>
	<g>
		<rect x="49" y="40" width="5" height="2"/>
	</g>
</g>
<g>
	<g>
		<rect x="49" y="44" width="5" height="2"/>
	</g>
</g>
<g>
	<g>
		<rect x="35" y="12" width="9" height="2"/>
	</g>
</g>
<g>
	<g>
		<rect x="46" y="12" width="8" height="2"/>
	</g>
</g>
<g>
	<g>
		<rect x="35" y="8" width="5" height="2"/>
	</g>
</g>
<g>
	<g>
		<rect x="42" y="8" width="12" height="2"/>
	</g>
</g>
<g>
	<g>
		<rect x="48" width="2" height="2"/>
	</g>
</g>
<g>
	<g>
		<rect x="52" width="2" height="2"/>
	</g>
</g>
<g>
	<g>
		<rect x="56" width="2" height="2"/>
	</g>
</g>
<g>
	<g>
		<rect x="35" width="11" height="2"/>
	</g>
</g>
<g>
</g>
<g>
</g>
<g>
</g>
<g>
</g>
<g>
</g>
<g>
</g>
<g>
</g>
<g>
</g>
<g>
</g>
<g>
</g>
<g>
</g>
<g>
</g>
<g>
</g>
<g>
</g>
<g>
</g>
</svg>
