<svg xmlns="http://www.w3.org/2000/svg" version="1.1" xmlns:xlink="http://www.w3.org/1999/xlink" xmlns:svgjs="http://svgjs.com/svgjs" width="1440" height="560" preserveAspectRatio="none" viewBox="0 0 1440 560"><g mask="url(&quot;#SvgjsMask1000&quot;)" fill="none"><rect width="1440" height="560" x="0" y="0" fill="#0e2a47"></rect><path d="M0,441.965C81.362,445.873,143.042,373.034,209.147,325.439C271.742,280.371,342.893,241.384,375.605,171.533C408.444,101.411,404.839,19.763,387.656,-55.737C371.35,-127.381,327.783,-186.836,281.125,-243.596C233.345,-301.721,180.176,-352.572,114.085,-388.538C34.562,-431.813,-51.035,-495.03,-138.592,-471.999C-226.123,-448.975,-265.461,-349.153,-317.41,-275.037C-364.262,-208.192,-406.03,-140.35,-426.445,-61.314C-448.807,25.259,-487.834,125.329,-440.403,201.126C-392.511,277.659,-275.834,262.631,-196.622,305.949C-125.254,344.977,-81.248,438.063,0,441.965" fill="#0b2239"></path><path d="M1440 1065.2730000000001C1532.185 1049.406 1578.449 947.928 1652.975 891.396 1720.008 840.547 1823.284 827.489 1855.779 749.88 1888.262 672.302 1837.8020000000001 586.932 1814.2640000000001 506.189 1793.906 436.354 1757.166 377.197 1727.742 310.671 1683.868 211.474 1690.884 76.44900000000001 1598.825 19.090000000000032 1508.362-37.27499999999998 1384.757-4.600000000000023 1285.968 35.41700000000003 1192.0720000000001 73.452 1128.52 156.15499999999997 1065.213 235.245 1004.164 311.514 946.073 390.538 925.303 485.998 903.563 585.914 898.96 694.777 945.409 785.8720000000001 991.152 875.582 1086.372 924.3 1174.048 973.829 1257.356 1020.8910000000001 1345.705 1081.5030000000002 1440 1065.2730000000001" fill="#113255"></path></g><defs><mask id="SvgjsMask1000"><rect width="1440" height="560" fill="#ffffff"></rect></mask></defs></svg>