<svg xmlns="http://www.w3.org/2000/svg" version="1.1" xmlns:xlink="http://www.w3.org/1999/xlink" xmlns:svgjs="http://svgjs.com/svgjs" width="1440" height="560" preserveAspectRatio="none" viewBox="0 0 1440 560"><g mask="url(&quot;#SvgjsMask1001&quot;)" fill="none"><rect width="1440" height="560" x="0" y="0" fill="rgba(239, 239, 239, 1)"></rect><path d="M0,407.814C75.357,400.026,141.692,360.244,202.325,314.824C259.562,271.948,306.05,218.331,338.215,154.458C371.335,88.688,406.804,15.528,389.031,-55.934C371.58,-126.104,288.062,-154.448,246.649,-213.722C198.212,-283.051,199.256,-388.016,126.681,-431.437C52.095,-476.061,-47.684,-469.784,-128.692,-438.286C-207.223,-407.752,-266.032,-338.797,-304.448,-263.806C-338.247,-197.827,-311.484,-119.338,-328.983,-47.301C-349.188,35.877,-434.532,106.079,-414.516,189.303C-394.603,272.096,-306.442,319.912,-231.114,359.621C-160.06,397.077,-79.896,416.071,0,407.814" fill="#bfbfbf"></path><path d="M1440 905.063C1515.949 916.894 1604.726 958.0319999999999 1665.835 911.4069999999999 1727.8890000000001 864.0609999999999 1692.682 761.163 1722.917 689.204 1751.747 620.587 1846.151 576.772 1837.497 502.849 1828.885 429.28 1732.465 404.577 1683.129 349.328 1634.813 295.222 1616.188 213.8 1550.99 182.003 1482.519 148.61 1396.787 144.79899999999998 1327.167 175.72500000000002 1259.824 205.64 1235.888 285.672 1189.226 342.703 1144.217 397.71299999999997 1080.43 437.683 1057.7269999999999 505.037 1032.747 579.145 1017.946 667.158 1057.026 734.898 1095.783 802.079 1184.391 815.956 1255.268 847.4490000000001 1315.432 874.181 1374.949 894.929 1440 905.063" fill="#ffffff"></path></g><defs><mask id="SvgjsMask1001"><rect width="1440" height="560" fill="#ffffff"></rect></mask></defs></svg>