<?xml version="1.0" encoding="iso-8859-1"?>
<!-- Generator: Adobe Illustrator 19.0.0, SVG Export Plug-In . SVG Version: 6.00 Build 0)  -->
<svg version="1.1" id="Capa_1" xmlns="http://www.w3.org/2000/svg" xmlns:xlink="http://www.w3.org/1999/xlink" x="0px" y="0px"
	 viewBox="0 0 56 56" style="enable-background:new 0 0 56 56;" xml:space="preserve">
<g>
	<g>
		<path d="M52.267,10H3.378C1.516,10,0,11.515,0,13.378v30.018C0,44.832,1.168,46,2.604,46h1.791C5.832,46,7,44.832,7,43.396v-25.08
			c0.132,0.061,0.271,0.098,0.414,0.098c0.256,0,0.512-0.098,0.707-0.293C8.425,17.817,8.485,17.369,8.316,17h39.369
			c-0.169,0.369-0.11,0.817,0.195,1.121c0.195,0.195,0.451,0.293,0.707,0.293c0.143,0,0.282-0.038,0.414-0.098v25.08
			C49,44.832,50.168,46,51.604,46h1.791C54.832,46,56,44.832,56,43.396V13.733C56,11.675,54.325,10,52.267,10z M54,43.396
			C54,43.729,53.729,44,53.396,44h-1.791C51.271,44,51,43.729,51,43.396V15H5v28.396C5,43.729,4.729,44,4.396,44H2.604
			C2.271,44,2,43.729,2,43.396V13.378C2,12.618,2.618,12,3.378,12h48.889C53.223,12,54,12.778,54,13.733V43.396z"/>
		<path d="M9.651,40.012l-1.6,1.2c-0.442,0.331-0.532,0.958-0.2,1.4c0.196,0.262,0.496,0.4,0.801,0.4c0.209,0,0.419-0.065,0.599-0.2
			l1.6-1.2c0.442-0.331,0.532-0.958,0.2-1.4C10.72,39.77,10.093,39.679,9.651,40.012z"/>
		<path d="M12.364,20.949l-1.415-1.414c-0.391-0.39-1.023-0.39-1.414,0s-0.391,1.024,0,1.415l1.415,1.414
			c0.195,0.195,0.451,0.292,0.707,0.292s0.512-0.098,0.707-0.293C12.755,21.973,12.755,21.34,12.364,20.949z"/>
		<path d="M13,32.687c0,0.552,0.447,1,1,1s1-0.448,1-1v-2c0-0.552-0.447-1-1-1s-1,0.448-1,1V32.687z"/>
		<path d="M14,27.687c0.553,0,1-0.448,1-1v-2c0-0.552-0.447-1-1-1s-1,0.448-1,1v2C13,27.239,13.447,27.687,14,27.687z"/>
		<path d="M41,32.687c0,0.552,0.447,1,1,1s1-0.448,1-1v-2c0-0.552-0.447-1-1-1s-1,0.448-1,1V32.687z"/>
		<path d="M42,27.687c0.553,0,1-0.448,1-1v-2c0-0.552-0.447-1-1-1s-1,0.448-1,1v2C41,27.239,41.447,27.687,42,27.687z"/>
		<path d="M48.2,40.696l-1.696-1.06c-0.469-0.293-1.086-0.15-1.378,0.318c-0.293,0.468-0.15,1.085,0.317,1.378l1.696,1.06
			c0.165,0.103,0.349,0.152,0.529,0.152c0.333,0,0.659-0.167,0.849-0.47C48.811,41.605,48.668,40.989,48.2,40.696z"/>
		<path d="M46.465,20.95c0.391-0.391,0.391-1.024,0-1.415s-1.023-0.39-1.414,0l-1.415,1.414c-0.391,0.391-0.391,1.024,0,1.415
			c0.195,0.195,0.451,0.293,0.707,0.293s0.512-0.098,0.707-0.292L46.465,20.95z"/>
		<path d="M43.112,37.516L43,37.446v-0.759c0-0.552-0.447-1-1-1s-1,0.448-1,1V38c0,0.345,0.178,0.665,0.47,0.848l0.582,0.364
			c0.165,0.103,0.349,0.152,0.529,0.152c0.333,0,0.659-0.167,0.849-0.47C43.723,38.425,43.58,37.809,43.112,37.516z"/>
		<path d="M22,37h-2c-0.553,0-1,0.448-1,1s0.447,1,1,1h2c0.553,0,1-0.448,1-1S22.553,37,22,37z"/>
		<path d="M16,37h-1v-0.313c0-0.552-0.447-1-1-1s-1,0.448-1,1V37.5l-0.148,0.112c-0.442,0.331-0.532,0.958-0.2,1.4
			c0.196,0.262,0.496,0.4,0.801,0.4c0.209,0,0.419-0.065,0.599-0.2L14.333,39H16c0.553,0,1-0.448,1-1S16.553,37,16,37z"/>
		<path d="M38,37h-1.025c-0.254-2.799-2.611-5-5.475-5s-5.221,2.201-5.475,5H26c-0.553,0-1,0.448-1,1s0.447,1,1,1h0.213
			c0.655,2.305,2.775,4,5.287,4s4.631-1.695,5.287-4H38c0.553,0,1-0.448,1-1S38.553,37,38,37z M31.5,41c-1.93,0-3.5-1.57-3.5-3.5
			s1.57-3.5,3.5-3.5s3.5,1.57,3.5,3.5S33.43,41,31.5,41z"/>
	</g>
</g>
<g>
</g>
<g>
</g>
<g>
</g>
<g>
</g>
<g>
</g>
<g>
</g>
<g>
</g>
<g>
</g>
<g>
</g>
<g>
</g>
<g>
</g>
<g>
</g>
<g>
</g>
<g>
</g>
<g>
</g>
</svg>
